<?xml version="1.0" encoding="UTF-8"?>
<svg width="512" height="512" xmlns="http://www.w3.org/2000/svg">

 <g>
  <title>background</title>
  <rect fill="none" id="canvas_background" height="514" width="514" y="-1" x="-1"/>
 </g>
 <g>
  <title>Layer 1</title>
  <path id="svg_1" fill="rgb(30,30,30)" d="m512,390.400513l0,-230.400009c0,0 -232.963013,162.561996 -255.618988,170.999985c-22.269012,-8.049988 -256.381012,-170.999985 -256.381012,-170.999985l0,230.400009c0,32 6.781,38.398987 38.400002,38.398987l435.200005,0c32.375,0.001007 38.399994,-5.623993 38.399994,-38.398987zm-0.375,-275.569016c0,-23.311996 -6.799988,-31.630997 -38.024994,-31.630997l-435.200005,0c-32.125001,0 -38.400002,9.987 -38.400002,33.280998l0.381,3.581001c0,0 231.287991,159.237 256.000012,167.937988c26.118988,-10.112 255.618988,-171.51899 255.618988,-171.51899l-0.375,-1.650002z"/>
 </g>
</svg>