<?xml version="1.0" standalone="no"?>
<!DOCTYPE svg PUBLIC "-//W3C//DTD SVG 20010904//EN"
 "http://www.w3.org/TR/2001/REC-SVG-20010904/DTD/svg10.dtd">
<svg version="1.0" xmlns="http://www.w3.org/2000/svg"
 width="1200.000000pt" height="1200.000000pt" viewBox="0 0 1200.000000 1200.000000"
 preserveAspectRatio="xMidYMid meet">
<metadata>
Created by potrace 1.11, written by Peter Selinger 2001-2013
</metadata>
<g transform="translate(0.000000,1200.000000) scale(0.100000,-0.100000)"
fill="#000000" stroke="none">
<path d="M5907 11314 c-1 -1 -74 -4 -162 -8 -88 -4 -176 -9 -195 -11 -19 -2
-60 -7 -90 -9 -141 -13 -322 -39 -455 -67 -27 -5 -66 -12 -85 -15 -19 -3 -123
-28 -230 -55 -485 -123 -991 -333 -1415 -588 -115 -69 -342 -220 -420 -279
-138 -104 -275 -215 -320 -257 -12 -11 -48 -42 -80 -70 -76 -64 -321 -308
-405 -404 -36 -40 -70 -79 -75 -85 -45 -48 -168 -203 -243 -306 -51 -69 -96
-129 -100 -135 -11 -15 -114 -173 -154 -236 -257 -406 -506 -988 -624 -1459
-18 -74 -26 -109 -30 -130 -3 -14 -11 -50 -19 -80 -7 -30 -16 -73 -20 -95 -12
-68 -14 -79 -20 -110 -3 -16 -8 -46 -11 -65 -3 -19 -7 -46 -9 -59 -2 -13 -7
-45 -11 -70 -3 -25 -8 -57 -10 -71 -2 -14 -6 -56 -9 -95 -4 -38 -8 -83 -10
-100 -9 -68 -19 -331 -18 -490 0 -213 16 -463 39 -640 2 -16 6 -48 9 -70 3
-22 10 -65 15 -95 5 -30 12 -71 15 -90 27 -170 100 -469 159 -656 52 -163 130
-383 156 -439 15 -33 65 -148 81 -184 35 -86 216 -432 250 -483 11 -14 19 -29
19 -32 0 -16 205 -322 316 -471 211 -284 571 -666 829 -881 530 -441 1103
-763 1731 -973 174 -59 300 -96 384 -116 8 -2 53 -12 100 -24 119 -29 281 -60
395 -76 11 -2 39 -6 62 -9 61 -10 101 -15 163 -21 30 -3 71 -7 90 -9 212 -27
811 -27 1015 -1 17 2 62 7 100 10 39 4 77 8 85 10 8 2 38 7 65 10 28 4 57 8
65 10 8 2 35 7 60 10 35 5 274 52 350 70 140 32 402 109 541 159 126 46 273
102 296 114 10 6 47 22 83 37 181 76 556 280 755 410 72 47 328 230 359 255
20 17 87 72 131 107 41 33 93 78 181 159 505 462 897 982 1193 1584 34 69 66
132 70 141 11 19 132 311 136 324 1 6 5 17 8 25 8 18 97 279 103 300 2 8 20
71 39 140 31 111 62 237 80 325 16 75 54 295 60 344 4 30 8 61 10 70 1 9 6 50
10 91 4 41 9 82 10 90 24 130 24 875 0 1010 -1 8 -6 47 -9 85 -4 39 -14 111
-21 160 -8 50 -17 108 -20 130 -3 22 -8 49 -10 61 -3 12 -7 39 -11 60 -3 21
-12 64 -19 94 -8 30 -16 69 -19 85 -35 199 -198 696 -313 955 -35 77 -184 379
-218 440 -243 435 -534 819 -885 1170 -193 194 -226 224 -385 356 -425 351
-885 625 -1410 839 -11 4 -24 9 -30 11 -5 2 -66 24 -135 50 -165 61 -473 153
-596 178 -11 3 -50 11 -89 20 -38 9 -83 18 -100 21 -72 14 -193 34 -230 40
-22 3 -53 7 -70 10 -55 8 -119 16 -185 21 -36 3 -76 7 -90 10 -47 8 -545 25
-553 18z m373 -728 c114 -6 147 -10 245 -22 28 -3 64 -8 80 -9 52 -5 165 -23
255 -40 427 -82 822 -216 1200 -407 107 -54 202 -103 210 -108 8 -5 58 -35
110 -66 195 -115 470 -315 650 -472 90 -79 367 -355 432 -432 26 -30 61 -71
78 -90 122 -139 353 -471 464 -668 183 -324 351 -724 431 -1027 8 -27 22 -84
33 -125 20 -75 57 -244 67 -310 3 -19 7 -46 10 -60 3 -14 7 -41 10 -60 3 -19
7 -46 10 -60 3 -14 7 -54 10 -90 3 -36 7 -76 10 -90 25 -140 25 -785 1 -918
-2 -9 -7 -48 -11 -85 -3 -37 -8 -78 -11 -90 -2 -12 -6 -39 -9 -62 -14 -94 -28
-174 -40 -225 -8 -30 -17 -71 -20 -90 -11 -64 -75 -297 -116 -422 -110 -333
-281 -701 -455 -980 -467 -749 -1116 -1335 -1899 -1719 -294 -144 -640 -270
-915 -334 -146 -34 -235 -53 -280 -60 -20 -3 -47 -7 -60 -10 -13 -3 -42 -7
-65 -10 -22 -3 -47 -8 -55 -10 -8 -2 -51 -7 -95 -10 -44 -4 -82 -8 -85 -10
-14 -8 -265 -19 -465 -19 -190 -1 -408 8 -463 19 -9 1 -46 6 -82 10 -55 5
-212 29 -334 51 -204 35 -538 132 -788 228 -199 76 -579 262 -688 336 -14 10
-72 47 -130 84 -412 261 -807 618 -1114 1006 -36 47 -70 90 -74 95 -4 6 -21
28 -38 50 -65 84 -284 424 -284 441 0 3 -8 18 -19 32 -25 36 -149 283 -201
402 -160 364 -287 808 -336 1176 -4 33 -9 61 -9 64 -1 3 -5 37 -9 75 -5 39
-10 84 -12 100 -21 170 -21 731 1 855 2 14 6 52 9 86 3 34 7 72 10 85 3 13 8
43 10 67 5 37 26 163 41 242 30 163 115 465 182 650 44 121 106 276 123 309 5
9 38 77 74 151 138 286 327 591 503 810 336 420 670 729 1088 1007 166 111
272 172 470 272 188 96 215 108 395 179 109 43 376 133 435 147 11 2 54 13 95
24 41 12 120 30 175 42 134 28 127 27 171 34 22 3 54 8 73 11 18 3 43 7 54 10
56 10 296 34 407 40 69 4 126 7 127 8 5 4 315 -2 413 -8z"/>
<path d="M5968 6865 c-2 -2 -28 -5 -58 -8 -88 -10 -121 -17 -192 -42 -222 -79
-395 -234 -494 -440 -67 -139 -87 -225 -87 -385 0 -154 19 -244 77 -367 281
-591 1072 -685 1478 -175 230 288 249 707 48 1017 -160 244 -413 386 -712 399
-32 2 -59 2 -60 1z"/>
</g>
</svg>
