<?xml version="1.0" standalone="no"?>
<!DOCTYPE svg PUBLIC "-//W3C//DTD SVG 20010904//EN"
 "http://www.w3.org/TR/2001/REC-SVG-20010904/DTD/svg10.dtd">
<svg version="1.0" xmlns="http://www.w3.org/2000/svg"
 width="2500.000000pt" height="2500.000000pt" viewBox="0 0 2500.000000 2500.000000"
 preserveAspectRatio="xMidYMid meet">
<metadata>
Created by potrace 1.11, written by Peter Selinger 2001-2013
</metadata>
<g transform="translate(0.000000,2500.000000) scale(0.100000,-0.100000)"
fill="#000000" stroke="none">
<path d="M12180 23049 c-756 -21 -1484 -120 -2215 -300 -269 -66 -566 -153
-561 -164 2 -5 8 -9 13 -8 6 1 27 -16 48 -38 22 -21 44 -39 50 -39 7 0 20 -10
31 -21 10 -12 62 -57 114 -99 52 -43 108 -92 124 -108 16 -17 32 -29 36 -27 4
2 24 -14 45 -35 22 -22 44 -40 50 -40 7 0 20 -10 31 -21 10 -12 60 -54 109
-94 50 -40 103 -87 119 -104 17 -17 35 -31 41 -31 6 0 29 -18 50 -40 21 -22
44 -40 50 -40 7 0 20 -10 31 -21 10 -12 60 -54 109 -94 50 -40 103 -87 119
-104 17 -17 35 -31 41 -31 6 0 30 -20 54 -44 24 -25 47 -44 51 -43 6 2 42 -27
188 -155 46 -40 93 -78 104 -84 11 -7 40 -31 64 -55 24 -24 44 -39 44 -35 0 5
25 -13 55 -40 30 -27 95 -83 145 -124 50 -41 116 -97 146 -124 30 -27 54 -45
54 -41 0 4 24 -14 54 -41 30 -27 96 -83 146 -124 50 -41 115 -96 144 -122 29
-27 55 -46 58 -43 2 2 24 -16 48 -40 24 -25 48 -45 53 -45 7 0 54 -39 236
-198 30 -26 56 -45 59 -43 2 2 23 -16 47 -39 24 -23 52 -47 63 -54 23 -13 163
-130 239 -200 29 -27 53 -45 53 -40 0 4 20 -11 44 -35 24 -24 53 -48 64 -55
23 -13 162 -130 237 -198 29 -27 54 -46 57 -43 2 2 24 -16 48 -40 24 -25 49
-45 56 -45 6 0 19 -10 30 -21 10 -12 62 -57 114 -99 52 -43 108 -92 124 -108
16 -17 32 -29 36 -27 4 2 24 -14 45 -35 22 -22 44 -40 50 -40 7 0 20 -10 31
-21 10 -12 62 -57 114 -99 52 -43 106 -89 119 -103 13 -15 27 -24 31 -22 4 2
26 -16 50 -40 24 -25 49 -45 56 -45 6 0 19 -10 30 -21 10 -12 51 -47 89 -77
39 -31 94 -78 123 -106 28 -27 52 -45 52 -40 0 4 24 -15 53 -44 28 -28 56 -51
60 -51 8 0 42 -28 185 -153 46 -40 93 -78 104 -84 11 -7 40 -31 64 -55 24 -24
44 -39 44 -35 0 5 22 -11 49 -35 27 -24 93 -80 146 -124 53 -44 121 -102 151
-129 30 -27 54 -45 54 -41 0 4 22 -12 50 -36 27 -24 92 -80 145 -124 53 -44
120 -101 149 -127 29 -27 55 -46 58 -43 2 2 24 -16 48 -40 24 -25 48 -45 53
-45 8 0 52 -37 234 -196 29 -25 55 -44 59 -43 3 0 25 -18 49 -41 24 -23 52
-47 63 -54 23 -13 163 -130 239 -200 29 -27 53 -45 53 -40 0 4 20 -11 44 -35
24 -24 53 -48 64 -55 23 -13 163 -130 239 -200 29 -27 53 -45 53 -40 0 4 21
-12 46 -36 l46 -45 -6 65 c-4 36 -22 270 -41 520 -19 250 -112 1447 -205 2660
-94 1213 -178 2304 -186 2425 -10 128 -21 225 -28 231 -24 25 -516 202 -816
295 -1126 348 -2266 502 -3460 468z"/>
<path d="M8040 22071 c-2073 -968 -3777 -2585 -4868 -4621 l-51 -96 47 4 c26
2 63 5 82 7 19 1 44 5 55 8 19 6 51 10 210 24 77 6 131 12 175 18 19 3 62 8
95 11 70 6 160 15 280 29 22 3 65 7 95 9 30 3 73 8 95 11 22 3 63 8 90 11 28
2 66 7 85 9 19 2 58 6 85 9 88 8 169 17 205 22 36 5 81 10 185 20 62 5 116 11
195 20 25 2 70 7 100 10 30 2 71 7 90 10 44 6 113 14 165 19 131 12 173 16
200 21 17 3 50 7 75 9 79 7 164 15 195 20 17 2 59 7 95 11 36 3 83 8 105 10
22 3 68 6 101 8 34 2 70 8 80 14 10 6 27 7 40 2 12 -5 25 -6 28 -3 7 7 41 12
126 19 36 3 83 7 105 10 22 3 60 7 85 10 25 3 65 7 90 10 70 8 131 14 180 19
25 2 68 7 95 10 69 8 119 13 190 19 33 3 72 8 86 11 14 3 52 8 85 11 32 3 75
6 94 8 116 12 168 18 195 21 17 3 53 7 80 9 28 3 70 7 95 10 25 3 70 8 100 11
30 4 73 8 95 11 53 7 126 14 200 20 33 2 76 7 95 10 45 6 111 14 180 20 30 2
71 7 90 10 39 5 98 12 180 19 84 7 152 14 185 20 17 3 57 8 90 10 33 3 78 7
100 9 22 3 67 7 100 10 33 3 72 8 88 12 15 3 60 8 100 11 39 2 92 7 117 9 25
3 63 7 85 9 22 3 54 7 70 10 31 5 105 13 210 20 33 2 71 7 85 11 14 4 48 9 75
11 28 2 70 5 95 8 25 2 70 6 101 9 30 3 73 8 95 11 21 3 59 7 84 9 50 4 149
15 195 22 17 3 57 7 90 10 33 3 80 7 105 10 25 3 70 7 100 9 30 2 66 6 80 9
27 7 103 15 190 21 30 2 66 6 80 9 14 4 52 9 85 12 60 4 146 12 220 19 22 2
56 6 75 9 19 4 60 9 90 12 30 2 75 7 100 9 25 3 70 7 100 9 30 3 73 8 95 12
22 4 58 9 80 10 87 7 134 12 186 19 30 4 70 9 89 11 141 12 243 24 247 28 1 1
-21 20 -49 42 -29 21 -81 65 -115 98 -35 32 -63 55 -63 50 0 -5 -22 14 -50 41
-27 27 -50 45 -50 40 0 -5 -19 9 -42 31 -24 22 -68 60 -98 84 -30 24 -79 66
-107 94 -29 28 -53 46 -53 41 0 -5 -22 13 -50 40 -27 27 -50 45 -50 40 0 -5
-19 9 -42 31 -24 22 -74 65 -113 96 -38 31 -83 70 -99 87 -17 17 -35 31 -41
31 -6 0 -30 20 -54 44 -24 25 -47 44 -50 43 -7 -2 -50 34 -207 171 -46 39 -87
72 -91 72 -5 0 -29 20 -53 45 -24 24 -46 42 -48 40 -3 -3 -29 16 -58 43 -29
26 -94 81 -144 122 -50 41 -116 97 -146 124 -30 27 -54 45 -54 41 0 -4 -24 14
-54 41 -30 27 -96 83 -146 124 -50 41 -115 96 -144 122 -29 27 -55 46 -58 43
-2 -2 -24 16 -48 40 -24 25 -48 45 -53 45 -7 0 -44 31 -236 198 -30 26 -58 46
-61 45 -4 -1 -27 18 -51 43 -24 24 -47 44 -52 44 -7 0 -92 71 -237 199 -30 27
-58 48 -62 47 -4 0 -25 16 -47 38 -21 21 -48 43 -59 50 -25 14 -167 134 -244
205 -32 30 -58 50 -58 45 0 -4 -18 9 -39 30 -22 21 -48 43 -59 50 -24 14 -167
134 -242 203 -31 29 -59 51 -62 48 -2 -2 -22 13 -43 35 -22 22 -44 40 -50 40
-7 0 -20 10 -31 21 -10 12 -53 49 -94 82 -41 33 -99 83 -127 111 -29 28 -53
46 -53 41 0 -5 -22 13 -50 40 -27 27 -50 45 -50 41 0 -5 -22 12 -50 38 -27 25
-50 46 -52 46 -2 0 -59 -26 -128 -59z"/>
<path d="M17666 21663 c3 -27 34 -426 69 -888 62 -807 139 -1807 375 -4860 60
-775 148 -1918 196 -2540 47 -621 88 -1132 91 -1135 2 -2 15 9 29 25 14 17 43
50 64 75 67 76 90 103 128 150 20 25 48 57 62 71 14 14 34 37 44 50 65 80 145
167 150 162 3 -4 6 1 6 9 0 18 45 69 54 61 3 -4 6 1 6 10 0 10 5 17 10 17 6 0
15 11 22 25 6 13 15 22 19 19 5 -3 9 1 9 9 0 7 14 23 30 35 17 13 30 29 30 36
0 7 14 23 30 36 17 13 30 29 30 35 0 7 7 15 15 19 8 3 15 12 15 21 0 8 6 15
13 16 13 0 158 169 169 197 4 9 7 13 7 9 1 -5 14 6 30 25 31 35 158 184 179
208 6 8 32 37 57 65 25 27 45 54 45 58 0 5 5 5 10 2 6 -4 9 -2 8 2 -3 9 55 80
127 159 17 18 38 44 49 58 10 14 22 23 27 20 5 -3 9 2 9 11 0 8 7 18 15 21 8
4 15 12 15 19 0 7 14 25 30 38 17 14 30 30 30 36 0 6 5 11 10 11 6 0 15 11 22
25 6 13 15 22 19 19 5 -3 9 1 9 9 0 8 14 24 30 37 17 13 30 29 30 36 0 7 14
23 30 36 17 12 30 26 30 31 0 4 14 20 30 34 17 13 30 32 30 41 0 8 3 13 6 9 8
-8 54 47 54 64 0 7 3 10 6 6 3 -3 18 8 32 26 14 18 44 52 67 77 22 25 58 67
80 94 22 28 65 77 95 111 30 34 71 81 90 104 19 23 42 50 50 60 8 9 42 48 75
86 32 39 66 77 75 87 8 9 33 38 55 64 22 26 59 67 81 91 23 24 40 43 37 43 -2
0 8 12 22 27 14 15 25 31 25 36 0 4 5 5 10 2 6 -3 13 2 17 12 10 27 40 63 46
56 4 -3 10 3 14 13 3 10 12 23 20 27 7 4 13 12 13 17 0 5 19 29 43 53 89 92
137 150 137 165 0 8 3 13 6 9 3 -3 38 31 76 76 39 45 80 93 92 107 45 54 211
246 221 256 5 6 29 33 52 60 23 27 75 87 116 134 40 47 82 96 93 108 10 13 30
36 42 50 13 15 41 48 62 74 21 26 40 45 43 42 3 -3 8 4 12 15 3 12 10 19 15
16 4 -3 11 7 14 21 8 32 -65 200 -239 552 -822 1663 -2069 3080 -3615 4111
-181 121 -569 360 -657 405 l-32 16 5 -47z"/>
<path d="M8515 16791 c-2 -2 -35 -5 -72 -8 -83 -5 -138 -11 -178 -18 -16 -3
-59 -8 -95 -11 -36 -3 -84 -8 -107 -10 -24 -3 -62 -7 -85 -9 -24 -3 -59 -7
-78 -10 -34 -5 -85 -10 -200 -19 -30 -3 -73 -8 -95 -11 -44 -6 -107 -14 -170
-19 -73 -7 -170 -17 -200 -22 -16 -2 -50 -6 -75 -8 -25 -2 -70 -7 -100 -10
-88 -11 -121 -14 -190 -22 -36 -3 -83 -8 -105 -11 -22 -2 -65 -6 -95 -8 -30
-1 -66 -6 -80 -9 -14 -4 -52 -9 -85 -12 -33 -3 -85 -7 -115 -10 -30 -3 -75 -7
-100 -9 -25 -2 -61 -6 -80 -10 -19 -3 -60 -8 -90 -11 -62 -5 -129 -12 -180
-18 -19 -2 -62 -7 -95 -11 -33 -4 -78 -9 -100 -11 -22 -1 -56 -5 -75 -7 -54
-8 -165 -19 -310 -33 -36 -3 -83 -8 -105 -10 -22 -2 -53 -6 -70 -9 -16 -3 -59
-8 -95 -11 -36 -3 -83 -8 -105 -11 -22 -2 -60 -6 -85 -9 -25 -3 -65 -7 -90
-10 -25 -3 -65 -7 -90 -9 -25 -2 -67 -6 -95 -10 -27 -3 -70 -8 -95 -11 -25 -3
-63 -7 -85 -10 -22 -2 -60 -6 -85 -8 -66 -5 -170 -16 -210 -22 -19 -3 -57 -7
-85 -9 -27 -2 -66 -6 -85 -10 -19 -3 -60 -8 -90 -10 -30 -3 -77 -7 -105 -10
-27 -3 -78 -7 -111 -9 -34 -2 -70 -8 -80 -14 -10 -6 -27 -7 -40 -2 -12 5 -25
6 -28 3 -8 -8 -78 -17 -211 -28 -33 -3 -76 -7 -95 -10 -84 -11 -129 -16 -180
-20 -30 -3 -71 -7 -90 -10 -19 -3 -60 -8 -90 -11 -30 -2 -75 -7 -100 -9 -25
-3 -71 -7 -104 -9 -32 -3 -60 -6 -61 -8 -10 -10 -133 -376 -188 -558 -512
-1684 -600 -3436 -261 -5164 54 -275 192 -845 210 -865 2 -2 19 13 36 34 18
22 68 80 112 130 43 49 97 112 120 139 22 27 57 67 77 90 64 72 114 130 124
144 6 8 31 35 57 62 27 26 48 52 48 58 0 6 14 21 30 34 17 12 30 28 30 35 0 8
4 12 9 9 5 -3 12 6 15 19 4 14 11 23 17 19 6 -3 13 3 16 15 3 11 9 18 14 15 5
-3 9 1 9 8 0 7 9 19 20 26 11 7 20 20 20 29 0 9 3 14 6 10 3 -3 18 8 32 26 14
18 44 53 67 78 22 25 60 70 85 99 25 30 65 77 89 105 24 27 62 72 85 98 22 27
46 54 51 60 10 11 136 157 160 184 5 7 28 33 50 59 22 26 55 63 72 83 18 20
33 40 33 44 0 5 5 5 10 2 6 -4 9 -3 8 2 -2 5 9 24 25 42 15 18 27 29 27 25 0
-5 12 11 27 33 15 23 31 39 36 36 4 -3 11 4 14 16 3 11 9 18 14 15 5 -3 9 0 9
7 0 13 7 21 60 75 16 17 30 36 30 42 0 6 9 16 20 22 11 6 20 18 20 26 0 8 5
12 10 9 6 -3 10 0 10 7 0 7 9 19 20 26 11 7 20 19 20 28 0 8 5 12 10 9 6 -3
10 -2 10 3 0 6 15 25 33 44 18 18 57 62 87 97 30 35 60 69 65 75 6 6 35 41 65
76 30 36 65 76 77 90 12 14 31 36 43 50 12 14 39 45 61 70 66 77 89 103 127
150 20 25 48 57 62 71 14 14 34 37 44 50 65 80 145 167 150 162 3 -4 6 1 6 9
0 18 45 69 54 61 3 -4 6 1 6 10 0 10 5 17 10 17 6 0 15 11 22 25 6 13 15 22
19 19 5 -3 9 1 9 9 0 7 14 23 30 35 17 13 30 29 30 36 0 7 14 23 30 36 17 13
30 29 30 35 0 7 7 15 15 19 8 3 15 12 15 21 0 8 6 15 13 16 13 0 158 169 169
197 4 9 7 13 7 9 1 -5 14 6 30 25 31 35 158 184 179 208 6 8 32 37 57 65 25
27 45 54 45 58 0 5 5 5 10 2 6 -4 9 -2 8 2 -3 9 55 80 127 159 17 18 38 44 49
58 10 14 22 23 27 20 5 -3 9 2 9 11 0 8 7 18 15 21 8 4 15 12 15 19 0 7 14 25
30 38 17 14 30 30 30 36 0 6 5 11 10 11 6 0 15 11 22 25 6 13 15 22 19 19 5
-3 9 1 9 9 0 8 14 24 30 37 17 13 30 29 30 36 0 7 14 23 30 36 17 12 30 26 30
31 0 4 14 20 30 34 17 13 30 32 30 41 0 8 3 13 6 9 8 -8 54 47 54 64 0 7 3 10
6 6 3 -3 18 8 32 26 14 18 44 52 67 77 22 25 58 67 80 94 22 28 65 77 95 111
30 34 71 81 90 104 19 23 42 50 50 60 8 9 42 48 75 86 32 39 66 77 75 87 8 9
33 38 55 64 22 26 59 67 81 91 23 24 40 43 37 43 -2 0 8 12 22 27 14 15 25 31
25 36 0 4 5 5 10 2 6 -3 13 2 17 12 10 28 40 63 47 56 4 -4 9 2 12 14 3 12 12
24 20 27 8 3 14 10 14 15 0 6 19 30 43 54 89 92 137 150 137 165 0 8 3 13 6 9
9 -9 122 126 199 238 227 330 523 679 775 916 l115 108 -48 -2 c-27 -1 -50 -4
-52 -6z"/>
<path d="M22602 15356 c-23 -28 -57 -68 -75 -88 -18 -20 -48 -56 -69 -80 -88
-104 -120 -142 -131 -154 -7 -7 -30 -35 -52 -61 -22 -25 -59 -66 -81 -90 -23
-24 -39 -43 -36 -43 3 0 -13 -17 -36 -38 -23 -22 -42 -42 -42 -46 0 -14 -37
-55 -44 -49 -4 4 -9 -3 -13 -15 -3 -12 -9 -19 -14 -16 -5 3 -9 1 -9 -3 0 -13
-30 -50 -67 -86 -18 -16 -33 -33 -33 -37 0 -4 -20 -29 -45 -54 -25 -26 -45
-55 -45 -63 0 -9 -3 -14 -6 -10 -7 6 -24 -10 -76 -73 -20 -25 -49 -58 -63 -75
-15 -16 -45 -52 -68 -79 -23 -27 -76 -88 -117 -136 -41 -47 -95 -110 -120
-140 -25 -29 -49 -58 -55 -64 -10 -11 -133 -152 -150 -173 -48 -57 -107 -124
-142 -160 -24 -24 -43 -46 -43 -50 0 -11 -48 -62 -54 -56 -3 4 -6 -1 -6 -10 0
-9 -9 -21 -20 -27 -11 -6 -20 -18 -20 -26 0 -8 -4 -13 -9 -9 -5 3 -12 -4 -16
-15 -3 -11 -10 -20 -14 -20 -5 0 -35 -32 -67 -72 -33 -39 -66 -79 -74 -88 -15
-16 -112 -129 -199 -229 -25 -30 -65 -74 -88 -98 -23 -24 -41 -46 -40 -47 1
-2 -16 -24 -38 -50 -22 -25 -58 -67 -80 -93 -22 -26 -61 -70 -87 -97 -27 -27
-48 -52 -48 -55 0 -3 -19 -27 -42 -52 -24 -26 -51 -58 -62 -73 -10 -14 -22
-23 -27 -20 -5 3 -9 -2 -9 -11 0 -8 -7 -18 -15 -21 -8 -4 -15 -12 -15 -19 0
-7 -13 -24 -28 -37 -15 -13 -31 -31 -35 -41 -3 -9 -11 -17 -16 -17 -5 0 -13
-9 -16 -20 -4 -11 -11 -18 -16 -15 -5 4 -9 -1 -9 -9 0 -9 -7 -16 -15 -16 -8 0
-15 -6 -15 -14 0 -8 -7 -16 -15 -20 -8 -3 -15 -10 -15 -15 0 -6 -15 -25 -32
-43 -56 -57 -143 -159 -150 -176 -4 -9 -7 -13 -7 -9 -1 5 -13 -6 -28 -25 -15
-18 -45 -53 -68 -78 -22 -25 -59 -68 -82 -95 -23 -28 -53 -63 -68 -80 -14 -16
-43 -50 -63 -75 -20 -24 -44 -51 -52 -60 -8 -9 -40 -45 -70 -80 -30 -35 -68
-79 -85 -97 -16 -18 -40 -45 -52 -60 -12 -15 -39 -47 -60 -71 -21 -23 -51 -59
-68 -78 -16 -20 -49 -56 -72 -79 -24 -24 -43 -47 -43 -53 0 -5 -13 -19 -30
-32 -16 -13 -30 -29 -30 -37 0 -8 -4 -12 -9 -9 -5 4 -15 -7 -22 -23 -7 -16
-17 -27 -21 -25 -4 3 -8 0 -8 -6 0 -6 -13 -23 -30 -37 -16 -13 -30 -31 -30
-38 0 -7 -7 -15 -15 -19 -8 -3 -15 -13 -15 -22 0 -10 -3 -15 -6 -11 -6 6 -19
-7 -89 -89 -22 -26 -60 -70 -85 -98 -25 -29 -65 -76 -90 -105 -25 -30 -52 -61
-60 -70 -8 -9 -24 -28 -35 -42 -20 -26 -104 -123 -160 -185 -16 -19 -34 -40
-40 -47 -11 -14 -132 -153 -155 -178 -8 -9 -23 -28 -34 -42 -10 -15 -22 -24
-27 -21 -5 3 -9 0 -9 -6 0 -13 -8 -22 -72 -93 -71 -78 -78 -86 -78 -98 0 -5
-4 -8 -9 -4 -5 3 -12 -3 -16 -14 -3 -11 -12 -22 -20 -25 -8 -3 -15 -12 -15
-21 0 -8 -4 -15 -9 -15 -9 0 -70 -67 -178 -195 -23 -28 -53 -63 -68 -80 -14
-16 -43 -50 -63 -75 -20 -24 -46 -54 -57 -65 -11 -11 -65 -74 -120 -140 -55
-66 -102 -122 -105 -125 -3 -3 -48 -54 -100 -115 -52 -60 -99 -115 -105 -121
-5 -7 -37 -42 -70 -80 -33 -37 -75 -82 -92 -100 -18 -18 -33 -37 -33 -43 0 -6
-4 -11 -9 -11 -5 0 -13 -9 -16 -21 -4 -11 -9 -18 -12 -15 -7 7 -72 -64 -79
-87 -3 -9 -8 -16 -12 -14 -4 2 -26 -20 -50 -50 -34 -42 -39 -53 -25 -54 10 -1
23 0 28 1 6 2 28 4 50 6 22 2 63 6 90 9 69 8 119 13 190 19 33 3 72 8 86 11
14 3 52 8 85 11 32 3 75 6 94 8 116 12 168 18 195 21 17 3 53 7 80 9 28 3 70
7 95 10 25 3 70 8 100 11 30 4 73 8 95 11 53 7 126 14 200 20 33 2 76 7 95 10
45 6 111 14 180 20 30 2 71 7 90 10 39 5 98 12 180 19 84 7 152 14 185 20 17
3 57 8 90 10 33 3 78 7 100 9 22 3 67 7 100 10 33 3 72 8 88 12 15 3 60 8 100
11 39 2 90 7 112 9 22 3 60 7 85 9 25 2 59 7 75 10 31 5 105 13 210 20 33 2
71 7 85 11 14 4 48 9 75 11 28 2 70 5 95 8 25 2 70 6 101 9 30 3 73 8 95 11
21 3 59 7 84 9 50 4 149 15 195 22 17 3 57 7 90 10 33 3 80 7 105 10 25 3 70
7 100 9 30 2 66 6 80 9 27 7 103 15 190 21 30 2 66 6 80 9 14 4 52 9 85 12 60
4 146 12 220 19 22 2 56 6 75 9 19 4 55 8 80 11 80 8 154 15 210 19 30 3 73 8
95 12 22 4 58 9 80 10 87 7 134 12 186 19 30 4 70 9 89 11 19 2 60 6 90 9 30
3 80 7 110 10 30 3 69 8 85 10 17 3 59 7 94 9 36 2 69 10 76 18 17 17 138 362
215 614 533 1733 611 3592 224 5374 -47 218 -152 631 -163 641 -3 4 -25 -16
-49 -45z"/>
<path d="M6630 12767 c-14 -18 -45 -52 -69 -77 -24 -25 -43 -47 -43 -50 0 -3
-16 -24 -36 -47 -20 -23 -55 -64 -77 -90 -22 -26 -61 -70 -87 -97 -27 -27 -48
-52 -48 -55 0 -3 -19 -27 -42 -52 -24 -26 -51 -58 -62 -73 -10 -14 -22 -23
-27 -20 -5 3 -9 -2 -9 -11 0 -8 -7 -18 -15 -21 -8 -4 -15 -12 -15 -19 0 -7
-13 -24 -28 -37 -15 -13 -31 -31 -35 -41 -3 -9 -11 -17 -16 -17 -5 0 -13 -9
-16 -20 -4 -11 -11 -18 -16 -15 -5 4 -9 -1 -9 -9 0 -9 -7 -16 -15 -16 -8 0
-15 -6 -15 -14 0 -8 -7 -16 -15 -20 -8 -3 -15 -10 -15 -15 0 -6 -15 -25 -32
-43 -56 -57 -143 -159 -150 -176 -4 -9 -7 -13 -7 -9 -1 5 -13 -6 -28 -25 -15
-18 -45 -53 -68 -78 -22 -25 -59 -68 -82 -95 -23 -28 -53 -63 -68 -80 -14 -16
-43 -50 -63 -75 -20 -24 -44 -51 -52 -60 -8 -9 -40 -45 -70 -80 -30 -35 -68
-79 -85 -97 -16 -18 -40 -45 -52 -60 -12 -15 -39 -47 -60 -71 -21 -23 -51 -59
-68 -78 -16 -20 -49 -56 -72 -79 -24 -24 -43 -47 -43 -53 0 -5 -13 -19 -30
-32 -16 -13 -30 -29 -30 -37 0 -8 -4 -12 -9 -9 -5 4 -15 -7 -22 -23 -7 -16
-17 -27 -21 -25 -4 3 -8 0 -8 -6 0 -6 -13 -23 -30 -37 -16 -13 -30 -31 -30
-38 0 -7 -7 -15 -15 -19 -8 -3 -15 -13 -15 -22 0 -10 -3 -15 -6 -11 -6 6 -19
-7 -89 -89 -22 -26 -60 -70 -85 -98 -25 -29 -65 -76 -90 -105 -25 -30 -52 -61
-60 -70 -8 -9 -24 -28 -35 -42 -20 -26 -104 -123 -160 -185 -16 -19 -34 -40
-40 -47 -11 -14 -132 -153 -155 -178 -8 -9 -23 -28 -34 -42 -10 -15 -22 -24
-27 -21 -5 3 -9 0 -9 -6 0 -13 -8 -22 -72 -93 -71 -78 -78 -86 -78 -98 0 -5
-4 -8 -9 -4 -5 3 -12 -3 -16 -14 -3 -11 -12 -22 -20 -25 -8 -3 -15 -12 -15
-21 0 -8 -4 -15 -9 -15 -9 0 -70 -67 -178 -195 -23 -28 -53 -63 -68 -80 -14
-16 -43 -50 -63 -75 -20 -24 -46 -54 -57 -65 -17 -17 -76 -85 -189 -220 -48
-57 -101 -118 -151 -175 -27 -31 -68 -78 -90 -104 -77 -90 -82 -96 -87 -90 -3
3 -9 -7 -12 -21 -8 -32 40 -144 204 -481 485 -996 1120 -1903 1885 -2693 741
-766 1499 -1352 2448 -1895 27 -15 50 -26 52 -24 1 1 -37 521 -86 1153 -49
633 -127 1647 -174 2255 -47 608 -162 2095 -255 3305 -94 1210 -181 2339 -194
2508 -13 170 -26 310 -28 312 -2 2 -15 -11 -28 -28z"/>
<path d="M8136 8624 c3 -22 70 -883 149 -1914 80 -1031 182 -2358 227 -2948
l83 -1072 105 -41 c728 -284 1534 -491 2370 -608 711 -100 1601 -121 2355 -55
738 64 1594 231 2208 430 l49 16 -28 29 c-15 16 -33 29 -39 29 -6 0 -31 20
-55 45 -24 25 -48 45 -54 45 -5 0 -31 19 -57 42 -26 24 -89 77 -139 118 -50
41 -115 96 -144 123 -29 26 -57 47 -61 47 -4 0 -30 19 -56 42 -26 24 -89 77
-139 118 -50 41 -115 96 -144 122 -29 27 -55 46 -58 43 -2 -2 -24 16 -48 40
-24 25 -48 45 -53 45 -7 0 -93 72 -241 203 -33 28 -63 51 -66 50 -4 -1 -24 16
-45 38 -22 21 -43 39 -48 39 -7 0 -92 71 -237 199 -30 27 -58 48 -62 47 -4 0
-25 16 -47 38 -21 21 -48 43 -59 50 -24 14 -167 134 -242 203 -31 29 -59 51
-62 48 -2 -2 -22 13 -43 35 -22 22 -44 40 -50 40 -7 0 -20 10 -31 21 -10 12
-53 49 -94 82 -41 33 -99 83 -127 111 -29 28 -53 46 -53 41 0 -5 -22 13 -50
40 -27 27 -50 45 -50 40 0 -5 -19 9 -42 31 -24 22 -68 60 -98 84 -30 24 -79
66 -107 94 -29 28 -53 46 -53 41 0 -5 -22 13 -50 40 -27 27 -50 45 -50 40 0
-5 -19 9 -42 31 -24 22 -74 65 -113 96 -38 31 -83 70 -99 87 -17 17 -35 31
-41 31 -6 0 -30 20 -54 44 -24 25 -47 44 -50 43 -7 -2 -50 34 -207 171 -46 39
-87 72 -91 72 -5 0 -29 20 -53 45 -24 24 -46 42 -48 40 -3 -3 -29 16 -58 43
-29 26 -94 81 -144 122 -50 41 -116 97 -146 124 -30 27 -54 45 -54 41 0 -4
-24 14 -54 41 -30 27 -96 83 -146 124 -50 41 -115 96 -144 122 -29 27 -55 46
-58 43 -2 -2 -24 16 -48 40 -24 25 -48 45 -53 45 -7 0 -44 31 -236 198 -30 26
-58 46 -61 45 -4 -1 -27 18 -51 43 -24 24 -47 44 -52 44 -7 0 -98 76 -241 203
-33 28 -62 51 -65 50 -3 -1 -22 14 -43 34 -20 19 -45 40 -56 47 -25 14 -167
134 -244 205 -32 30 -58 50 -58 45 0 -4 -18 9 -39 30 -22 21 -48 43 -59 50
-25 14 -167 134 -244 205 -32 30 -58 50 -58 45 0 -4 -18 9 -39 30 -22 21 -48
43 -59 50 -11 6 -42 29 -69 51 -28 22 -99 76 -158 119 -155 114 -328 258 -501
416 -83 76 -185 166 -225 198 -41 33 -87 74 -103 91 -17 17 -34 31 -40 31 -5
0 -22 12 -37 26 l-27 26 4 -38z"/>
<path d="M21807 7563 c-4 -3 -28 -8 -54 -10 -160 -12 -239 -20 -288 -28 -16
-3 -57 -7 -90 -10 -33 -4 -80 -8 -105 -11 -25 -3 -70 -7 -101 -9 -31 -1 -65
-6 -75 -9 -21 -6 -123 -17 -199 -20 -27 -2 -59 -6 -70 -9 -23 -7 -112 -16
-320 -32 -33 -2 -71 -7 -85 -11 -14 -4 -47 -9 -75 -10 -27 -2 -70 -6 -95 -8
-25 -3 -70 -7 -101 -10 -30 -3 -73 -8 -95 -11 -21 -4 -57 -8 -79 -10 -111 -10
-155 -15 -191 -20 -21 -3 -61 -8 -89 -11 -27 -2 -66 -6 -85 -8 -103 -10 -169
-18 -200 -22 -19 -3 -62 -8 -95 -10 -33 -3 -78 -7 -100 -10 -22 -2 -62 -6 -90
-9 -27 -3 -70 -8 -95 -11 -25 -3 -69 -6 -97 -7 -29 -1 -53 -5 -53 -8 0 -3 -21
-6 -47 -6 -27 -1 -64 -4 -83 -8 -37 -7 -88 -12 -180 -20 -54 -4 -125 -12 -185
-21 -27 -4 -70 -8 -190 -18 -22 -2 -65 -7 -95 -11 -56 -8 -86 -11 -200 -21
-93 -8 -141 -13 -175 -19 -16 -3 -59 -8 -95 -11 -36 -3 -83 -7 -105 -10 -22
-3 -60 -7 -85 -9 -25 -3 -61 -7 -80 -10 -34 -5 -85 -10 -200 -19 -30 -3 -73
-8 -95 -11 -44 -6 -107 -14 -170 -19 -73 -7 -170 -17 -200 -22 -16 -2 -50 -6
-75 -8 -25 -2 -70 -7 -100 -10 -88 -11 -121 -14 -190 -22 -36 -3 -83 -8 -105
-11 -22 -2 -65 -6 -95 -8 -30 -1 -66 -6 -80 -9 -14 -4 -52 -9 -85 -12 -33 -3
-85 -7 -115 -10 -30 -3 -75 -7 -100 -9 -25 -2 -61 -6 -80 -10 -19 -3 -60 -8
-90 -11 -62 -5 -129 -12 -180 -18 -19 -2 -62 -7 -95 -11 -33 -4 -78 -9 -100
-11 -22 -1 -56 -5 -75 -7 -54 -8 -165 -19 -310 -33 -36 -3 -83 -8 -105 -10
-22 -2 -53 -6 -70 -9 -16 -3 -59 -8 -95 -11 -36 -3 -83 -8 -105 -11 -22 -2
-61 -6 -87 -9 -27 -3 -68 -7 -93 -10 -25 -3 -64 -7 -87 -9 -24 -2 -65 -6 -93
-10 -27 -3 -70 -8 -95 -11 -25 -3 -63 -7 -85 -10 -22 -2 -60 -6 -85 -8 -66 -5
-170 -16 -210 -22 -19 -3 -57 -7 -85 -9 -27 -2 -66 -6 -85 -10 -19 -3 -60 -8
-90 -10 -30 -3 -77 -7 -105 -10 -27 -3 -78 -7 -111 -9 -34 -2 -70 -8 -80 -14
-10 -6 -27 -7 -40 -2 -12 5 -25 6 -28 3 -8 -8 -78 -17 -211 -28 -33 -3 -76 -7
-95 -10 -19 -2 -55 -7 -80 -10 -25 -3 -62 -7 -82 -7 -21 -1 -38 -4 -38 -8 0
-10 56 -61 61 -55 3 2 25 -16 49 -40 24 -25 48 -45 53 -45 7 0 47 -34 234
-196 29 -25 55 -44 59 -43 3 0 25 -18 49 -41 24 -23 52 -47 63 -54 23 -13 163
-130 239 -200 29 -27 53 -45 53 -40 0 4 20 -11 44 -35 24 -24 53 -48 64 -55
23 -13 162 -130 237 -198 29 -27 54 -46 57 -43 2 2 24 -16 48 -40 24 -25 49
-45 56 -45 6 0 19 -10 30 -21 10 -12 62 -57 114 -99 52 -43 108 -92 124 -108
16 -17 32 -29 36 -27 4 2 24 -14 45 -35 22 -22 44 -40 50 -40 7 0 20 -10 31
-21 10 -12 62 -57 114 -99 52 -43 106 -89 119 -103 13 -15 27 -24 31 -22 4 2
26 -16 50 -40 24 -25 49 -45 56 -45 6 0 19 -10 30 -21 10 -12 51 -47 89 -77
39 -31 94 -78 123 -106 28 -27 52 -45 52 -40 0 4 25 -16 55 -46 31 -30 57 -53
58 -50 3 5 36 -22 185 -152 46 -40 93 -78 104 -84 11 -7 40 -31 64 -55 24 -24
44 -39 44 -35 0 5 22 -11 49 -35 27 -24 93 -80 146 -124 53 -44 121 -102 151
-129 30 -27 54 -45 54 -41 0 4 22 -12 50 -36 27 -24 92 -80 145 -124 53 -44
120 -101 149 -127 29 -27 55 -46 58 -43 2 2 24 -16 48 -40 24 -25 48 -45 53
-45 8 0 49 -35 236 -198 30 -26 58 -46 61 -45 4 1 27 -18 51 -43 24 -24 47
-44 52 -44 5 0 39 -27 75 -60 37 -33 73 -60 81 -60 7 0 118 51 245 113 1872
916 3455 2400 4501 4218 137 237 177 316 166 323 -4 3 -11 3 -14 -1z"/>
</g>
</svg>
